<svg xmlns="http://www.w3.org/2000/svg" xmlns:xlink="http://www.w3.org/1999/xlink" version="1.1" x="0px" y="0px" viewBox="0 0 96 120" style="enable-background:new 0 0 96 96;" xml:space="preserve"><g><path d="M41.75,15.5h12.5c0.6903534,0,1.25-0.5596437,1.25-1.25S54.9403534,13,54.25,13h-12.5   c-0.6903534,0-1.25,0.5596437-1.25,1.25S41.0596466,15.5,41.75,15.5z"/><path d="M33,51.75h-2.5v-2.5H33V51.75z"/><rect x="30.5" y="49.25" width="2.5" height="2.5"/><path d="M33,61.75h-2.5v-2.5H33V61.75z"/><rect x="30.5" y="59.25" width="2.5" height="2.5"/><path d="M33,71.75h-2.5v-2.5H33V71.75z"/><rect x="30.5" y="69.25" width="2.5" height="2.5"/><path d="M33,41.75h-2.5v-2.5H33V41.75z"/><rect x="30.5" y="39.25" width="2.5" height="2.5"/><path d="M33,31.75h-2.5v-2.5H33V31.75z"/><rect x="30.5" y="29.25" width="2.5" height="2.5"/></g><path d="M71.75,13H61.2700195l-2.1500244-4.3099976C58.9099731,8.2700195,58.4699707,8,58,8H38  c-0.4699707,0-0.9099731,0.2700195-1.1199951,0.6900024L34.7299805,13H24.25C20.7999878,13,18,15.7999878,18,19.25v62.5  c0,3.4500122,2.7999878,6.25,6.25,6.25h47.5c3.4500122,0,6.25-2.7999878,6.25-6.25v-62.5C78,15.7999878,75.2000122,13,71.75,13z   M68,28c0,0.6900024-0.5599976,1.25-1.25,1.25h-27.5C38.5599976,29.25,38,28.6900024,38,28s0.5599976-1.25,1.25-1.25h27.5  C67.4400024,26.75,68,27.3099976,68,28z M39.25,69.25C38.5599976,69.25,38,68.6900024,38,68s0.5599976-1.25,1.25-1.25h27.5  c0.6900024,0,1.25,0.5599976,1.25,1.25s-0.5599976,1.25-1.25,1.25H39.25z M54.25,73c0,0.6900024-0.5599976,1.25-1.25,1.25H39.25  C38.5599976,74.25,38,73.6900024,38,73s0.5599976-1.25,1.25-1.25H53C53.6900024,71.75,54.25,72.3099976,54.25,73z M38,63  c0-0.6900024,0.5599976-1.25,1.25-1.25H53c0.6900024,0,1.25,0.5599976,1.25,1.25s-0.5599976,1.25-1.25,1.25H39.25  C38.5599976,64.25,38,63.6900024,38,63z M66.75,59.25h-27.5C38.5599976,59.25,38,58.6900024,38,58s0.5599976-1.25,1.25-1.25h27.5  c0.6900024,0,1.25,0.5599976,1.25,1.25S67.4400024,59.25,66.75,59.25z M38,53c0-0.6900024,0.5599976-1.25,1.25-1.25H53  c0.6900024,0,1.25,0.5599976,1.25,1.25s-0.5599976,1.25-1.25,1.25H39.25C38.5599976,54.25,38,53.6900024,38,53z M66.75,49.25h-27.5  C38.5599976,49.25,38,48.6900024,38,48s0.5599976-1.25,1.25-1.25h27.5c0.6900024,0,1.25,0.5599976,1.25,1.25  S67.4400024,49.25,66.75,49.25z M38,43c0-0.6900024,0.5599976-1.25,1.25-1.25H53c0.6900024,0,1.25,0.5599976,1.25,1.25  s-0.5599976,1.25-1.25,1.25H39.25C38.5599976,44.25,38,43.6900024,38,43z M66.75,39.25h-27.5C38.5599976,39.25,38,38.6900024,38,38  s0.5599976-1.25,1.25-1.25h27.5c0.6900024,0,1.25,0.5599976,1.25,1.25S67.4400024,39.25,66.75,39.25z M38,33  c0-0.6900024,0.5599976-1.25,1.25-1.25H53c0.6900024,0,1.25,0.5599976,1.25,1.25s-0.5599976,1.25-1.25,1.25H39.25  C38.5599976,34.25,38,33.6900024,38,33z M30.5,15.5h5c0.4699707,0,0.9099731-0.2700195,1.1199951-0.6900024L38.7700195,10.5  h18.4599609l2.1500244,4.3099976C59.5900269,15.2299805,60.0300293,15.5,60.5,15.5h5V18h-35V15.5z M28,28  c0-0.6900024,0.5599976-1.25,1.25-1.25h5c0.6900024,0,1.25,0.5599976,1.25,1.25v5c0,0.6900024-0.5599976,1.25-1.25,1.25h-5  C28.5599976,34.25,28,33.6900024,28,33V28z M28,38c0-0.6900024,0.5599976-1.25,1.25-1.25h5c0.6900024,0,1.25,0.5599976,1.25,1.25v5  c0,0.6900024-0.5599976,1.25-1.25,1.25h-5C28.5599976,44.25,28,43.6900024,28,43V38z M28,48c0-0.6900024,0.5599976-1.25,1.25-1.25h5  c0.6900024,0,1.25,0.5599976,1.25,1.25v5c0,0.6900024-0.5599976,1.25-1.25,1.25h-5C28.5599976,54.25,28,53.6900024,28,53V48z M28,58  c0-0.6900024,0.5599976-1.25,1.25-1.25h5c0.6900024,0,1.25,0.5599976,1.25,1.25v5c0,0.6900024-0.5599976,1.25-1.25,1.25h-5  C28.5599976,64.25,28,63.6900024,28,63V58z M28,68c0-0.6900024,0.5599976-1.25,1.25-1.25h5c0.6900024,0,1.25,0.5599976,1.25,1.25v5  c0,0.6900024-0.5599976,1.25-1.25,1.25h-5C28.5599976,74.25,28,73.6900024,28,73V68z M75.5,81.75  c0,2.0700073-1.6799927,3.75-3.75,3.75h-47.5c-2.0700073,0-3.75-1.6799927-3.75-3.75v-62.5  c0-1.5800171,1.0100098-2.9899902,2.5-3.5200195V81.75c0,0.6900024,0.5599976,1.25,1.25,1.25h47.5  c0.6900024,0,1.25-0.5599976,1.25-1.25V15.7299805c1.4899902,0.5300293,2.5,1.9400024,2.5,3.5200195V81.75z"/><text x="0" y="111" fill="#000000" font-size="5px" font-weight="bold" font-family="'Helvetica Neue', Helvetica, Arial-Unicode, Arial, Sans-serif">Created by mateus pato</text><text x="0" y="116" fill="#000000" font-size="5px" font-weight="bold" font-family="'Helvetica Neue', Helvetica, Arial-Unicode, Arial, Sans-serif">from the Noun Project</text></svg>